<svg width="188" height="49" viewBox="0 0 188 49" fill="none" xmlns="http://www.w3.org/2000/svg">
<path d="M34.9119 23.001C37.0628 23.001 38.4481 23.0192 39.0678 23.0557C39.4324 23.0922 39.6147 23.1833 39.6147 23.3291C39.6147 23.4749 39.3595 23.6025 38.8491 23.7119C38.0471 23.8577 37.2451 24.0035 36.443 24.1494C35.4223 24.4046 34.6749 24.7327 34.201 25.1337C32.7792 28.8522 32.0684 32.68 32.0684 36.6172C32.0684 36.8724 32.0866 37.1276 32.123 37.3828C33.1073 37.4557 34.0005 37.4922 34.8025 37.4922C34.9848 37.4922 35.2582 37.4739 35.6228 37.4375C35.9873 37.4375 36.2608 37.4375 36.443 37.4375C36.7347 37.4375 36.8805 37.5286 36.8805 37.7109C36.8805 38.0025 36.68 38.4218 36.279 38.9686C35.878 39.5519 35.5316 39.9347 35.24 40.117C34.438 40.6638 33.5813 40.9372 32.6699 40.9372C30.8106 40.9372 29.7352 40.0258 29.4435 38.203C26.2719 37.9114 23.0091 37.3463 19.6552 36.5078C15.4992 35.4506 12.4552 34.2476 10.523 32.8987C5.38278 38.4765 2.81266 42.76 2.81266 45.7494C2.81266 45.9316 2.84911 46.2051 2.92203 46.5696C2.95848 46.9706 2.97671 47.2623 2.97671 47.4446C2.97671 47.9185 2.73975 48.1554 2.26582 48.1554C1.82835 48.1554 1.48203 47.9185 1.22684 47.4446C0.93519 47.0071 0.789367 46.5514 0.789367 46.0775C0.789367 42.5777 3.61468 37.9843 9.26532 32.2972C7.18734 30.5109 6.14835 28.8704 6.14835 27.3757C6.14835 25.2977 7.97114 23.9124 11.6167 23.2197C13.8405 22.7823 16.4106 22.6365 19.3271 22.7823C24.9777 17.6785 31.0658 12.4835 37.5914 7.19747C38.1018 6.83291 38.8309 6.26785 39.7787 5.50228C39.9246 5.35645 40.1433 5.15595 40.4349 4.90076C41.9296 3.69772 43.2238 3.0962 44.3175 3.0962C44.7185 3.0962 44.919 3.24202 44.919 3.53367C44.919 3.97114 44.4997 5.02835 43.6613 6.70532C42.8592 8.34582 42.2577 9.34835 41.8567 9.71291C41.7473 9.78582 41.5651 9.89519 41.3099 10.041C41.237 10.1139 41.0547 10.4603 40.763 11.08C40.3256 11.8456 39.6876 13.0122 38.8491 14.5797C37.2451 17.7149 35.9327 20.522 34.9119 23.001ZM39.3413 7.96304C33.4719 11.9732 27.4932 16.9494 21.4051 22.8916L33.1073 22.9463C33.5084 21.7797 34.1099 20.2668 34.9119 18.4076C37.9013 11.5904 39.3959 8.12709 39.3959 8.01772C39.3959 7.98126 39.3777 7.96304 39.3413 7.96304ZM32.2324 38.4218C32.4511 39.4425 32.8704 39.9529 33.4901 39.9529C33.8182 39.9529 34.1463 39.7889 34.4744 39.4608C34.8025 39.1327 34.9666 38.8046 34.9666 38.4765V38.4218C34.8208 38.4218 34.6385 38.4218 34.4197 38.4218C34.1646 38.4582 33.9823 38.4765 33.8729 38.4765C33.3625 38.4765 32.8157 38.4582 32.2324 38.4218ZM32.6699 24.0947C32.2324 24.0947 31.6309 24.0947 30.8653 24.0947C29.9539 24.0582 29.3706 24.04 29.1154 24.04C23.6835 24.04 20.1473 24.678 18.5068 25.9539C16.8663 27.2299 14.5332 29.1985 11.5073 31.8597C14.5332 34.4846 20.4937 36.2527 29.3889 37.1641V36.8906C29.3524 34.9949 29.717 32.8258 30.4825 30.3833C31.2116 28.2689 31.9408 26.1727 32.6699 24.0947ZM17.7413 24.2587C17.3767 24.2223 16.9939 24.204 16.5929 24.204C14.9524 24.204 13.3301 24.4957 11.7261 25.079C9.57519 25.8446 8.49975 26.9018 8.49975 28.2506C8.49975 29.1985 9.08304 30.201 10.2496 31.2582C11.9266 29.6906 14.4238 27.3575 17.7413 24.2587ZM48.2654 25.8446C48.2289 25.8446 48.2107 25.8081 48.2107 25.7352C48.2107 25.5529 48.2654 25.2795 48.3747 24.9149C48.5206 24.5139 48.5935 24.2041 48.5935 23.9853C48.5935 23.0739 47.9737 22.6182 46.7342 22.6182C45.6406 22.6182 44.6745 22.9463 43.836 23.6025C42.8881 24.2587 42.4142 25.1154 42.4142 26.1727C42.4142 27.4122 43.2163 28.597 44.8203 29.7271C46.4244 30.8572 47.2264 31.878 47.2264 32.7894C47.2264 33.4091 46.9712 34.0653 46.4608 34.758C47.7003 34.6851 48.3383 34.6486 48.3747 34.6486C48.5935 34.6486 48.7028 34.7033 48.7028 34.8127C48.7028 35.0678 48.5023 35.2319 48.1013 35.3048C47.5909 35.3777 46.8436 35.5053 45.8593 35.6876C44 37.401 41.3935 38.2577 38.0395 38.2577C36.873 38.2577 36.2897 38.0572 36.2897 37.6562C36.2897 37.401 36.636 37.0547 37.3287 36.6172C38.9692 35.7058 41.5757 35.0861 45.1484 34.758C45.2213 34.6486 45.2578 34.5028 45.2578 34.3205C45.2578 33.6278 44.3464 32.6435 42.5236 31.3676C40.7373 30.0552 39.8441 28.7975 39.8441 27.5944C39.8441 27.1934 39.9535 26.7924 40.1722 26.3914C41.6304 23.6937 44.3281 21.9256 48.2654 21.0871C48.5935 21.0142 48.8851 20.9777 49.1403 20.9777C50.3433 20.9777 50.9449 21.5246 50.9449 22.6182C50.9449 23.238 50.6532 23.9306 50.0699 24.6962C49.4866 25.4618 48.8851 25.8446 48.2654 25.8446ZM59.889 16.3296C60.0713 16.3296 60.1625 16.4208 60.1625 16.603C60.1625 17.1499 59.6703 17.7332 58.686 18.3529C57.7381 18.9727 56.9543 19.2825 56.3346 19.2825C56.1888 19.2825 56.1159 18.9727 56.1159 18.3529C56.1159 17.5509 56.2252 17.1316 56.444 17.0952C56.6627 17.0587 57.2642 16.9129 58.2485 16.6577C59.0506 16.439 59.5974 16.3296 59.889 16.3296ZM51.9052 37C50.1189 37 49.2257 36.0886 49.2257 34.2658C49.2257 32.9899 49.6085 31.4587 50.3741 29.6724C50.7751 28.7246 51.5407 27.1752 52.6708 25.0243C52.8895 24.5504 53.2359 23.8759 53.7098 23.001C54.1108 22.3813 54.8581 22.0714 55.9518 22.0714C55.9518 22.0714 55.9336 22.0896 55.8971 22.1261C55.8971 22.1261 55.9154 22.1443 55.9518 22.1808C56.0247 22.1078 56.1159 22.0714 56.2252 22.0714C56.444 22.0714 56.5533 22.2537 56.5533 22.6182C56.5533 23.0557 56.3346 23.7119 55.8971 24.5868C55.4961 25.4253 55.1133 25.9175 54.7488 26.0633C54.0561 27.3757 53.3635 28.6699 52.6708 29.9458C51.7959 31.6228 51.3584 32.9899 51.3584 34.0471C51.3584 35.0678 51.9052 35.5782 52.9989 35.5782C53.8009 35.5782 54.9493 35.0314 56.444 33.9377C57.9387 32.8076 58.7042 32.2425 58.7407 32.2425C58.7771 32.2425 58.7954 32.2608 58.7954 32.2972C58.7954 32.4795 58.6495 32.7529 58.3579 33.1175C57.5923 34.1018 56.6262 34.9585 55.4597 35.6876C54.1473 36.5625 52.9625 37 51.9052 37ZM70.4553 37.4375C68.8148 37.4375 67.9946 36.2527 67.9946 33.883C67.9946 32.3884 68.2315 30.5838 68.7055 28.4694C67.7212 30.1099 66.2447 31.8962 64.2761 33.8284C61.9065 36.198 60.029 37.3828 58.6437 37.3828C57.951 37.3828 57.6047 36.9089 57.6047 35.961C57.6047 33.7372 58.6437 30.9301 60.7217 27.5397C62.9455 23.8213 65.0964 22.0532 67.1743 22.2354C68.3409 21.6522 69.2523 21.3605 69.9085 21.3605C70.1272 21.3605 70.8746 21.4516 72.1505 21.6339C72.6609 21.4152 73.0802 21.3058 73.4083 21.3058C73.8093 21.3058 74.0098 21.4881 74.0098 21.8527C74.0098 22.1808 73.8093 22.8005 73.4083 23.7119C73.0072 24.6233 72.6974 25.1154 72.4786 25.1884C71.9683 26.1727 71.5126 27.558 71.1115 29.3443C70.747 31.0942 70.5647 32.5524 70.5647 33.719C70.5647 35.1043 70.9657 35.797 71.7678 35.797C72.5333 35.797 73.4629 35.3048 74.5566 34.3205C75.6503 33.3362 76.1789 32.8441 76.1424 32.8441C76.2153 32.8441 76.2518 32.8805 76.2518 32.9534C76.2518 33.7554 75.3404 34.8309 73.5176 36.1797C72.3875 37.0182 71.3667 37.4375 70.4553 37.4375ZM70.5647 22.8916C70.2366 22.7458 69.8903 22.6729 69.5257 22.6729C68.1769 22.6729 66.9374 23.2927 65.8072 24.5322C64.8229 25.5894 63.8022 27.1205 62.745 29.1256C61.6878 31.0942 60.9222 32.8623 60.4483 34.4299C60.3389 34.7215 60.2842 34.9585 60.2842 35.1408C60.2842 35.3959 60.3753 35.5235 60.5576 35.5235C60.8128 35.5235 61.2321 35.3048 61.8153 34.8673C63.7475 33.482 65.4609 31.6775 66.9556 29.4537C67.7212 28.2506 68.9242 26.0633 70.5647 22.8916ZM134.807 6.59595C134.807 6.59595 134.807 6.54126 134.807 6.4319C134.807 6.46835 135.026 6.12202 135.463 5.39291C135.901 4.6638 136.12 4.00759 136.12 3.4243C136.12 2.47645 135.627 2.00253 134.643 2.00253C134.315 2.00253 133.969 2.05721 133.604 2.16658C132.073 2.71342 130.396 3.71595 128.573 5.17418C123.433 9.36658 117.327 16.6577 110.254 27.0476C107.885 30.5109 106.135 33.2633 105.005 35.3048C104.348 36.4714 103.966 37.0547 103.856 37.0547C103.82 37.0182 103.802 36.9635 103.802 36.8906C103.802 36.3803 104.002 35.7241 104.403 34.922C105.46 32.9899 107.01 30.3651 109.051 27.0476C117.946 12.6111 125.73 3.95291 132.401 1.07291C133.385 0.671897 134.352 0.47139 135.299 0.47139C137.013 0.47139 137.869 1.16405 137.869 2.54936C137.869 2.80456 137.851 3.02329 137.815 3.20557C137.705 3.7524 137.286 4.46329 136.557 5.33822C135.828 6.17671 135.245 6.59595 134.807 6.59595ZM115.012 7.90835C113.335 7.90835 110.819 7.58025 107.465 6.92405C104.148 6.26785 101.633 5.93975 99.9191 5.93975C97.8047 5.93975 95.909 6.26785 94.232 6.92405C91.9353 7.79899 90.7869 9.12962 90.7869 10.9159C90.7869 12.3013 91.5343 13.559 93.029 14.6891C94.1956 15.5276 95.5809 16.1838 97.1849 16.6577C97.7682 16.84 98.9348 17.077 100.685 17.3686C101.013 17.4051 101.177 17.4962 101.177 17.642C101.177 17.8243 100.976 17.9154 100.575 17.9154C98.315 17.9154 95.6902 17.241 92.7009 15.8922C89.2011 14.2881 87.4513 12.4653 87.4513 10.4238C87.4513 8.41873 88.9459 6.92405 91.9353 5.93975C94.0133 5.21063 96.31 4.84608 98.8254 4.84608C100.758 4.84608 103.619 5.17418 107.411 5.83038C111.239 6.45012 114.119 6.76 116.051 6.76C118.056 6.76 119.332 6.4319 119.879 5.77569C120.097 5.55696 120.243 5.44759 120.316 5.44759C120.389 5.44759 120.425 5.48405 120.425 5.55696C120.425 5.70278 120.389 5.83038 120.316 5.93975C119.441 7.25215 117.673 7.90835 115.012 7.90835ZM105.497 17.5873C105.497 23.2015 104.932 29.0162 103.802 35.0314C103.619 35.8699 103.346 37.1276 102.981 38.8046C102.617 40.1534 101.869 40.8278 100.739 40.8278C100.338 40.8278 100.138 40.682 100.138 40.3904C100.138 39.1144 100.666 35.9246 101.724 30.8208C102.781 25.717 103.309 21.8344 103.309 19.1732C103.309 18.4076 103.054 14.8532 102.544 8.50987L102.489 8.34582C102.489 8.16354 102.58 8.0724 102.763 8.0724C103.091 8.0724 103.528 8.34582 104.075 8.89266C104.658 9.43949 104.986 9.87696 105.059 10.2051C105.351 11.3352 105.497 13.7959 105.497 17.5873ZM129.547 28.1413C129.547 28.2871 129.292 28.36 128.782 28.36C128.563 28.36 128.235 28.3418 127.797 28.3053C127.36 28.2324 127.032 28.1959 126.813 28.1959C125.173 28.1959 123.113 28.4511 120.634 28.9615C119.358 31.2947 118.72 33.0446 118.72 34.2111C118.72 35.4871 119.376 36.1251 120.689 36.1251C121.782 36.1251 123.004 35.6876 124.352 34.8127C125.264 34.1929 126.23 33.3544 127.251 32.2972C128.126 31.4223 128.581 30.9848 128.618 30.9848C128.727 30.9848 128.782 31.0577 128.782 31.2035C128.782 32.042 128.107 32.9899 126.758 34.0471C123.842 36.2709 120.78 37.3828 117.572 37.3828C116.697 37.3828 116.132 37.2005 115.876 36.8359C115.694 36.5808 115.603 36.1068 115.603 35.4142C115.603 34.0653 116.205 32.1149 117.408 29.563C117.371 29.4901 117.353 29.4354 117.353 29.399C117.353 29.3625 117.517 29.1073 117.845 28.6334C118.064 28.2324 118.374 27.6673 118.775 26.9382C120.379 24.3134 122.147 22.7458 124.079 22.2354C124.553 22.1261 124.936 22.0714 125.227 22.0714C125.483 22.0714 125.61 22.1261 125.61 22.2354C125.61 22.3813 125.373 22.6182 124.899 22.9463C123.951 23.639 122.785 25.1701 121.399 27.5397C123.295 27.2116 124.936 27.1023 126.321 27.2116C127.415 25.644 127.962 24.1311 127.962 22.6729C127.962 22.2719 127.907 22.0349 127.797 21.962C127.725 21.8891 127.506 21.8527 127.141 21.8527C126.813 21.8527 126.649 21.7615 126.649 21.5792C126.649 21.397 126.941 21.2329 127.524 21.0871C128.107 20.9413 128.563 20.8684 128.891 20.8684C129.875 20.8684 130.368 21.324 130.368 22.2354C130.368 23.001 130.039 23.9489 129.383 25.079C128.727 26.2091 128.071 26.9565 127.415 27.321C128.836 27.5762 129.547 27.8496 129.547 28.1413ZM145.223 23.4932C145.223 24.1494 145.022 24.7873 144.621 25.4071C144.257 26.0268 143.746 26.3367 143.09 26.3367C142.798 26.3367 142.653 26.2273 142.653 26.0086C142.653 25.8992 142.671 25.7534 142.707 25.5711C142.744 25.3889 142.762 25.243 142.762 25.1337C142.762 24.441 142.525 24.0947 142.051 24.0947C141.213 24.0947 139.754 25.1154 137.676 27.157C135.963 28.761 134.723 30.1099 133.958 31.2035C133.192 32.2608 132.591 33.482 132.153 34.8673C132.08 35.1954 131.935 35.6329 131.716 36.1797C131.57 36.4714 131.06 36.8177 130.185 37.2187C129.31 37.6197 128.708 37.8203 128.38 37.8203C128.125 37.8203 128.016 37.7291 128.052 37.5468C129.109 35.7605 130.659 32.2608 132.7 27.0476L133.302 25.4618C133.302 25.3889 133.211 25.3524 133.028 25.3524C132.846 25.3524 132.755 25.2977 132.755 25.1884C132.755 25.2248 133.411 24.1129 134.723 21.8527C134.869 21.6339 135.179 21.4152 135.653 21.1965C136.163 20.9777 136.564 20.8684 136.856 20.8684C137.257 20.8684 137.458 21.0324 137.458 21.3605C137.458 21.5063 137.403 21.7068 137.294 21.962C136.455 23.6754 135.343 26.3185 133.958 29.8911C136.072 27.3757 138.515 25.0061 141.285 22.7823C142.306 21.9803 143.181 21.5792 143.91 21.5792C144.785 21.5792 145.223 22.2172 145.223 23.4932ZM156.211 22.5089C155.045 22.5089 153.623 22.6 151.946 22.7823C148.956 28.3965 147.462 32.1332 147.462 33.9924C147.462 35.0496 147.917 35.5782 148.829 35.5782C149.631 35.5782 150.779 35.0314 152.274 33.9377C153.805 32.8076 154.571 32.2425 154.571 32.2425C154.607 32.2425 154.625 32.2608 154.625 32.2972C154.625 32.4795 154.498 32.7529 154.242 33.1175C153.44 34.1018 152.474 34.9585 151.344 35.6876C149.995 36.5625 148.792 37 147.735 37C145.949 37 145.056 36.0886 145.056 34.2658C145.056 32.8805 145.602 30.9666 146.696 28.5241C146.878 28.1595 147.808 26.3367 149.485 23.0557C147.042 23.3473 145.876 23.4932 145.985 23.4932C145.584 23.4932 145.384 23.3656 145.384 23.1104C145.384 22.9281 145.511 22.7641 145.767 22.6182C146.058 22.4359 146.569 22.1443 147.298 21.7433C148.647 20.9048 149.995 19.7929 151.344 18.4076C151.527 18.0066 151.672 17.7149 151.782 17.5327C151.928 17.3504 152.165 17.2046 152.493 17.0952C154.206 16.5119 155.026 16.2203 154.953 16.2203C155.136 16.2203 155.227 16.2932 155.227 16.439C155.227 16.5484 154.352 18.2253 152.602 21.4699C156.211 21.4334 158.016 21.6704 158.016 22.1808C158.016 22.3995 157.414 22.5089 156.211 22.5089ZM150.633 20.0481C150.087 20.4127 149.303 20.9959 148.282 21.798C148.902 21.7251 149.521 21.6522 150.141 21.5792C150.251 21.2511 150.415 20.7408 150.633 20.0481ZM167.463 28.1413C167.463 28.2871 167.207 28.36 166.697 28.36C166.478 28.36 166.15 28.3418 165.713 28.3053C165.275 28.2324 164.947 28.1959 164.728 28.1959C163.088 28.1959 161.028 28.4511 158.549 28.9615C157.273 31.2947 156.635 33.0446 156.635 34.2111C156.635 35.4871 157.292 36.1251 158.604 36.1251C159.698 36.1251 160.919 35.6876 162.268 34.8127C163.179 34.1929 164.145 33.3544 165.166 32.2972C166.041 31.4223 166.497 30.9848 166.533 30.9848C166.642 30.9848 166.697 31.0577 166.697 31.2035C166.697 32.042 166.023 32.9899 164.674 34.0471C161.757 36.2709 158.695 37.3828 155.487 37.3828C154.612 37.3828 154.047 37.2005 153.792 36.8359C153.61 36.5808 153.518 36.1068 153.518 35.4142C153.518 34.0653 154.12 32.1149 155.323 29.563C155.286 29.4901 155.268 29.4354 155.268 29.399C155.268 29.3625 155.432 29.1073 155.76 28.6334C155.979 28.2324 156.289 27.6673 156.69 26.9382C158.294 24.3134 160.062 22.7458 161.994 22.2354C162.468 22.1261 162.851 22.0714 163.143 22.0714C163.398 22.0714 163.525 22.1261 163.525 22.2354C163.525 22.3813 163.288 22.6182 162.815 22.9463C161.867 23.639 160.7 25.1701 159.315 27.5397C161.211 27.2116 162.851 27.1023 164.236 27.2116C165.33 25.644 165.877 24.1311 165.877 22.6729C165.877 22.2719 165.822 22.0349 165.713 21.962C165.64 21.8891 165.421 21.8527 165.057 21.8527C164.728 21.8527 164.564 21.7615 164.564 21.5792C164.564 21.397 164.856 21.2329 165.439 21.0871C166.023 20.9413 166.478 20.8684 166.806 20.8684C167.791 20.8684 168.283 21.324 168.283 22.2354C168.283 23.001 167.955 23.9489 167.299 25.079C166.642 26.2091 165.986 26.9565 165.33 27.321C166.752 27.5762 167.463 27.8496 167.463 28.1413ZM187.075 32.2425C187.112 32.2425 187.13 32.279 187.13 32.3519C187.13 32.5342 187.039 32.7894 186.857 33.1175C186.237 34.1018 185.398 34.9767 184.341 35.7423C183.138 36.5808 182.026 37 181.005 37C178.745 37 177.615 35.7787 177.615 33.3362C177.615 32.1696 178.089 30.0552 179.037 26.9929C179.365 25.9357 179.529 25.243 179.529 24.9149C179.529 24.6233 179.438 24.4775 179.256 24.4775C179 24.4775 178.563 24.7327 177.943 25.243C176.558 26.4096 174.936 28.1595 173.076 30.4927C171.254 32.7894 169.941 34.7397 169.139 36.3438C168.993 36.6354 168.556 36.9453 167.827 37.2734C167.098 37.638 166.587 37.8203 166.296 37.8203C166.04 37.8203 165.931 37.7291 165.967 37.5468C167.681 34.6304 169.431 31.003 171.217 26.6648C171.363 26.2638 171.509 25.8628 171.655 25.4618C171.655 25.3889 171.563 25.3524 171.381 25.3524C171.199 25.3524 171.108 25.2977 171.108 25.1884C171.108 25.1519 171.764 24.04 173.076 21.8527C173.222 21.6339 173.55 21.4152 174.061 21.1965C174.571 20.9777 174.972 20.8684 175.264 20.8684C175.628 20.8684 175.81 21.0324 175.81 21.3605C175.81 21.6886 174.37 24.842 171.49 30.8208C172.73 29.3625 174.407 27.6309 176.521 25.6258C179.256 23.0739 181.042 21.798 181.88 21.798C182.281 21.798 182.482 22.1078 182.482 22.7276C182.482 23.3109 182.3 24.2952 181.935 25.6805C180.805 29.9458 180.24 32.5159 180.24 33.3909C180.24 34.8491 180.768 35.5782 181.826 35.5782C182.628 35.5782 183.685 35.0314 184.997 33.9377C186.346 32.8076 187.039 32.2425 187.075 32.2425Z" fill="white"/>
</svg>
