<svg width="20" height="20" viewBox="0 0 20 20" fill="none" xmlns="http://www.w3.org/2000/svg">
<path d="M14.5833 0.833008H5.41667C2.88536 0.833008 0.833336 2.88504 0.833336 5.41634V14.583C0.833336 17.1143 2.88536 19.1663 5.41667 19.1663H14.5833C17.1146 19.1663 19.1667 17.1143 19.1667 14.583V5.41634C19.1667 2.88504 17.1146 0.833008 14.5833 0.833008Z" fill="currentColor"/>
<path d="M13.6669 9.4218C13.7801 10.1847 13.6497 10.9638 13.2945 11.6484C12.9393 12.333 12.3773 12.8881 11.6884 13.2348C10.9995 13.5816 10.2188 13.7023 9.4574 13.5797C8.69596 13.4572 7.99254 13.0977 7.4472 12.5524C6.90185 12.007 6.54235 11.3036 6.41982 10.5422C6.2973 9.78072 6.41799 9.00004 6.76473 8.31114C7.11147 7.62225 7.6666 7.06023 8.35117 6.70502C9.03573 6.34981 9.81487 6.21951 10.5778 6.33263C11.3559 6.44803 12.0764 6.81064 12.6326 7.36691C13.1889 7.92319 13.5515 8.64362 13.6669 9.4218Z" stroke="#3A334B" stroke-width="1.83333" stroke-linecap="round" stroke-linejoin="round"/>
<path d="M15.0415 4.95801H15.0505" stroke="#3A334B" stroke-width="1.83333" stroke-linecap="round" stroke-linejoin="round"/>
</svg>
