<svg width="10" height="18" viewBox="0 0 10 18" fill="none" xmlns="http://www.w3.org/2000/svg">
<path d="M5.07246 0C2.6158 0 0.624329 1.98669 0.624329 4.43733C0.624329 6.88802 2.6158 8.87485 5.07246 8.87485C7.52912 8.87485 9.52059 6.88802 9.52059 4.43733C9.52059 1.98669 7.52912 0 5.07246 0ZM5.07246 6.27175C4.05696 6.27175 3.2337 5.45042 3.2337 4.43739C3.2337 3.42436 4.05696 2.6031 5.07246 2.6031C6.08796 2.6031 6.91122 3.42436 6.91122 4.43739C6.91122 5.45042 6.08796 6.27175 5.07246 6.27175Z" fill="white"/>
<path d="M6.64279 12.405C8.42356 12.0431 9.49068 11.2018 9.54715 11.1567C10.0682 10.7398 10.1519 9.98044 9.73404 9.46055C9.3162 8.94073 8.55507 8.85723 8.03386 9.27405C8.02285 9.28294 6.88468 10.1539 5.012 10.1552C3.13938 10.1539 1.97715 9.28294 1.96614 9.27405C1.44493 8.85723 0.683795 8.94073 0.26596 9.46055C-0.15194 9.98044 -0.0682323 10.7398 0.452853 11.1567C0.510079 11.2025 1.62125 12.0656 3.45193 12.419L0.900544 15.0789C0.436876 15.5586 0.450816 16.3224 0.931671 16.785C1.16637 17.0107 1.46886 17.1229 1.7711 17.1229C2.08798 17.1229 2.40454 16.9994 2.64184 16.7538L5.01206 14.2351L7.62169 16.7702C8.09452 17.2411 8.86018 17.2403 9.33212 16.7688C9.80406 16.2973 9.80349 15.5334 9.33078 15.0626L6.64279 12.405Z" fill="currentColor"/>
</svg>
