<svg width="19" height="13" viewBox="0 0 19 13" fill="none" xmlns="http://www.w3.org/2000/svg">
<path fill-rule="evenodd" clip-rule="evenodd" d="M2.79128 0H0.712678C0.118786 0 0 0.307044 0 0.645522C0 1.25015 0.704698 4.24878 3.28118 8.21472C4.99884 10.9231 7.41884 12.3913 9.621 12.3913C10.9423 12.3913 11.1057 12.0652 11.1057 11.5036V9.45652C11.1057 8.80435 11.2309 8.67417 11.6493 8.67417C11.9576 8.67417 12.4861 8.84348 13.7193 10.1493C15.1287 11.697 15.361 12.3913 16.1537 12.3913H18.2323C18.8263 12.3913 19.1232 12.0652 18.9519 11.4217C18.7644 10.7804 18.0916 9.84978 17.1987 8.74676C16.7142 8.118 15.9875 7.44091 15.7673 7.1023C15.459 6.66704 15.547 6.47354 15.7673 6.08667C15.7673 6.08667 18.2997 2.16907 18.564 0.839087C18.6961 0.35537 18.564 0 17.9354 0H15.8568C15.3283 0 15.0846 0.307044 14.9525 0.645522C14.9525 0.645522 13.8955 3.47491 12.398 5.3128C11.9135 5.84478 11.6933 6.01409 11.429 6.01409C11.2969 6.01409 11.1057 5.84478 11.1057 5.3612V0.839087C11.1057 0.258652 10.9523 0 10.5118 0H7.24541C6.91516 0 6.7165 0.269348 6.7165 0.524674C6.7165 1.07485 7.46521 1.20176 7.5424 2.74943V6.11087C7.5424 6.84783 7.42116 6.98146 7.15694 6.98146C6.45228 6.98146 4.73818 4.13941 3.72156 0.887413C3.52236 0.255326 3.3225 0 2.79128 0Z" fill="currentColor"/>
</svg>
